<svg width="185" height="185" viewBox="0 0 185 185" fill="none" xmlns="http://www.w3.org/2000/svg">
<circle cx="92.5" cy="92.5" r="92.5" fill="white"/>
<path d="M79.8668 75.5615L72.7471 68.0059C51.3588 89.0454 63.8353 109.417 72.7471 116.972L79.8668 109.417C67.4291 96.1651 74.6844 81.3251 79.8668 75.5615Z" fill="#FBE20B"/>
<path d="M86.6221 82.3901L79.8255 75.4883C67.4009 90.5995 74.0859 104.04 79.8251 109.416L86.1458 102.877C80.6244 95.1765 83.1215 86.1868 86.6221 82.3901Z" fill="#FEB300"/>
<circle cx="96.6831" cy="92.853" r="15.4019" fill="#1916BF"/>
<path d="M86.0027 81.7373C89.4387 85.3954 93.6346 94.6414 85.3883 103.605C78.1529 95.3935 81.5711 85.4425 86.0027 81.7373Z" fill="#FF7D00"/>
<path d="M97.6434 100.754C96.5141 100.754 95.5021 100.57 94.6074 100.204C93.7127 99.8369 92.9941 99.2943 92.4514 98.5756C91.9234 97.8569 91.6447 96.9916 91.6154 95.9796H95.6194C95.6781 96.5516 95.8761 96.9916 96.2134 97.2996C96.5507 97.5929 96.9907 97.7396 97.5334 97.7396C98.0907 97.7396 98.5307 97.6149 98.8534 97.3656C99.1761 97.1016 99.3374 96.7423 99.3374 96.2876C99.3374 95.9063 99.2054 95.5909 98.9414 95.3416C98.6921 95.0923 98.3767 94.8869 97.9954 94.7256C97.6287 94.5643 97.1007 94.3809 96.4114 94.1756C95.4141 93.8676 94.6001 93.5596 93.9694 93.2516C93.3387 92.9436 92.7961 92.4889 92.3414 91.8876C91.8867 91.2863 91.6594 90.5016 91.6594 89.5336C91.6594 88.0963 92.1801 86.9743 93.2214 86.1676C94.2627 85.3463 95.6194 84.9356 97.2914 84.9356C98.9927 84.9356 100.364 85.3463 101.405 86.1676C102.447 86.9743 103.004 88.1036 103.077 89.5556H99.0074C98.9781 89.0569 98.7947 88.6683 98.4574 88.3896C98.1201 88.0963 97.6874 87.9496 97.1594 87.9496C96.7047 87.9496 96.3381 88.0743 96.0594 88.3236C95.7807 88.5583 95.6414 88.9029 95.6414 89.3576C95.6414 89.8563 95.8761 90.2449 96.3454 90.5236C96.8147 90.8023 97.5481 91.1029 98.5454 91.4256C99.5427 91.7629 100.349 92.0856 100.965 92.3936C101.596 92.7016 102.139 93.1489 102.593 93.7356C103.048 94.3223 103.275 95.0776 103.275 96.0016C103.275 96.8816 103.048 97.6809 102.593 98.3996C102.153 99.1183 101.508 99.6903 100.657 100.116C99.8067 100.541 98.8021 100.754 97.6434 100.754Z" fill="white"/>
<path fill-rule="evenodd" clip-rule="evenodd" d="M36.6676 72.0272C36.0865 68.6127 38.6428 56.3057 57.0088 41.6594C75.3748 27.0131 100.502 28.7761 110.77 31.4884C116.679 32.5539 130.589 37.3585 138.958 48.0526C147.328 58.7468 142.445 64.9075 138.958 66.6511L125.155 75.3692C124.331 75.9019 122.162 76.6478 120.069 75.3692C117.212 70.0899 107.573 59.9964 91.8809 61.8562C72.2653 64.181 63.9831 79.7282 63.5472 91.4975L63.5015 91.4975C63.9378 103.636 72.2279 119.67 91.8621 122.068C107.57 123.986 117.217 113.576 120.077 108.131C122.172 106.813 124.344 107.582 125.168 108.131L138.984 117.123C142.475 118.921 147.362 125.275 138.984 136.304C130.607 147.334 116.684 152.289 110.769 153.388C100.492 156.185 75.3404 158.003 56.9569 142.898C38.5734 127.793 36.0146 115.1 36.5963 111.578C36.5963 110.379 37.1491 104.415 44.0138 97.9413C46.3408 95.0641 46.3408 92.4466 46.0499 91.4975L46.1123 91.4975C46.4029 90.5773 46.4029 88.0394 44.0781 85.2496C37.2199 78.9726 36.6676 73.1896 36.6676 72.0272Z" fill="url(#paint0_linear_1163_17)"/>
<defs>
<linearGradient id="paint0_linear_1163_17" x1="140.44" y1="120.42" x2="43.8099" y2="110.815" gradientUnits="userSpaceOnUse">
<stop stop-color="#22DBDE" stop-opacity="0.96"/>
<stop offset="1" stop-color="#A649FC" stop-opacity="0.89"/>
</linearGradient>
</defs>
</svg>
